<?xml version="1.0" encoding="UTF-8" standalone="no"?>
<svg width="45px" height="45px" viewBox="0 0 45 45" version="1.1" xmlns="http://www.w3.org/2000/svg" xmlns:xlink="http://www.w3.org/1999/xlink">
    <!-- Generator: Sketch 40 (33762) - http://www.bohemiancoding.com/sketch -->
    <title>internet</title>
    <desc>Created with Sketch.</desc>
    <defs></defs>
    <g id="Page-1" stroke="none" stroke-width="1" fill="none" fill-rule="evenodd">
        <g id="Desktop-HD-Copy" transform="translate(-612.000000, -3765.000000)" fill="#000000">
            <g id="Professores" transform="translate(1.000000, 3003.000000)">
                <g id="Marco" transform="translate(509.000000, 233.000000)">
                    <g id="internet" transform="translate(102.000000, 529.000000)">
                        <path d="M15.890625,27.515625 L21.375,27.515625 L21.375,23.484375 L15.328125,23.484375 C15.375,24.890625 15.5625,26.25 15.890625,27.515625 L15.890625,27.515625 Z" id="Shape"></path>
                        <path d="M15.328125,21.375 L21.375,21.375 L21.375,17.34375 L15.890625,17.34375 C15.5625,18.5625 15.375,19.921875 15.328125,21.375 L15.328125,21.375 Z" id="Shape"></path>
                        <path d="M21.375,35.296875 L21.375,29.390625 L16.40625,29.390625 C17.53125,32.484375 19.3125,34.6875 21.375,35.296875 L21.375,35.296875 Z" id="Shape"></path>
                        <path d="M11.4375,29.390625 C12.75,31.453125 14.625,33.09375 16.828125,34.171875 C15.84375,32.859375 15.046875,31.265625 14.4375,29.390625 L11.4375,29.390625 L11.4375,29.390625 Z" id="Shape"></path>
                        <path d="M13.40625,21.375 C13.453125,19.96875 13.640625,18.609375 13.921875,17.34375 L10.40625,17.34375 C9.890625,18.609375 9.515625,19.96875 9.421875,21.375 L9.421875,21.375 L13.40625,21.375 L13.40625,21.375 Z" id="Shape"></path>
                        <path d="M13.40625,23.484375 L9.421875,23.484375 L9.421875,23.484375 C9.515625,24.890625 9.890625,26.25 10.40625,27.515625 L13.921875,27.515625 C13.640625,26.25 13.5,24.890625 13.40625,23.484375 L13.40625,23.484375 Z" id="Shape"></path>
                        <path d="M16.828125,10.640625 C14.625,11.671875 12.75,13.359375 11.4375,15.421875 L14.4375,15.421875 C15.046875,13.546875 15.84375,11.953125 16.828125,10.640625 L16.828125,10.640625 Z" id="Shape"></path>
                        <path d="M16.40625,15.421875 L21.328125,15.421875 L21.328125,9.515625 C19.265625,10.125 17.53125,12.328125 16.40625,15.421875 L16.40625,15.421875 Z" id="Shape"></path>
                        <path d="M30.890625,27.515625 L34.40625,27.515625 C34.921875,26.25 35.296875,24.890625 35.390625,23.484375 L31.40625,23.484375 C31.359375,24.890625 31.171875,26.25 30.890625,27.515625 L30.890625,27.515625 Z" id="Shape"></path>
                        <path d="M31.40625,21.375 L35.390625,21.375 C35.296875,19.96875 34.921875,18.609375 34.40625,17.34375 L30.890625,17.34375 C31.171875,18.609375 31.359375,19.921875 31.40625,21.375 L31.40625,21.375 Z" id="Shape"></path>
                        <path d="M28.03125,10.640625 C29.015625,11.953125 29.8125,13.546875 30.421875,15.421875 L33.421875,15.421875 C32.109375,13.359375 30.234375,11.671875 28.03125,10.640625 L28.03125,10.640625 Z" id="Shape"></path>
                        <path d="M23.484375,9.515625 L23.484375,15.421875 L28.453125,15.421875 C27.375,12.28125 25.59375,10.078125 23.484375,9.515625 L23.484375,9.515625 Z" id="Shape"></path>
                        <path d="M22.3125,0.234375 C9.984375,0.234375 0,10.21875 0,22.546875 C0,34.875 9.984375,44.859375 22.3125,44.859375 C34.640625,44.859375 44.625,34.875 44.625,22.546875 C44.625,10.21875 34.640625,0.234375 22.3125,0.234375 L22.3125,0.234375 Z M22.40625,37.40625 C14.109375,37.40625 7.40625,30.703125 7.40625,22.40625 C7.40625,14.390625 13.734375,7.828125 21.65625,7.453125 L22.40625,7.453125 L23.15625,7.453125 C31.078125,7.828125 37.40625,14.390625 37.40625,22.40625 C37.40625,30.703125 30.703125,37.40625 22.40625,37.40625 L22.40625,37.40625 Z" id="Shape"></path>
                        <path d="M29.015625,17.296875 L23.484375,17.296875 L23.484375,21.328125 L29.578125,21.328125 C29.484375,19.921875 29.296875,18.5625 29.015625,17.296875 L29.015625,17.296875 Z" id="Shape"></path>
                        <path d="M29.578125,23.484375 L23.484375,23.484375 L23.484375,27.515625 L29.015625,27.515625 C29.296875,26.25 29.484375,24.890625 29.578125,23.484375 L29.578125,23.484375 Z" id="Shape"></path>
                        <path d="M28.03125,34.171875 C30.234375,33.140625 32.109375,31.453125 33.421875,29.390625 L30.421875,29.390625 C29.8125,31.265625 29.015625,32.90625 28.03125,34.171875 L28.03125,34.171875 Z" id="Shape"></path>
                        <path d="M23.484375,29.390625 L23.484375,35.296875 C25.59375,34.734375 27.375,32.53125 28.453125,29.390625 L23.484375,29.390625 L23.484375,29.390625 Z" id="Shape"></path>
                    </g>
                </g>
            </g>
        </g>
    </g>
</svg>