<?xml version="1.0" encoding="UTF-8" standalone="no"?>
<svg width="20px" height="21px" viewBox="0 0 20 21" version="1.1" xmlns="http://www.w3.org/2000/svg" xmlns:xlink="http://www.w3.org/1999/xlink">
    <!-- Generator: Sketch 40 (33762) - http://www.bohemiancoding.com/sketch -->
    <title>insta copy</title>
    <desc>Created with Sketch.</desc>
    <defs></defs>
    <g id="Page-1" stroke="none" stroke-width="1" fill="none" fill-rule="evenodd">
        <g id="Desktop-HD-Copy" transform="translate(-543.000000, -2918.000000)" fill="#60D390">
            <g id="Mão-na-massa" transform="translate(0.000000, 2223.000000)">
                <g id="insta-copy" transform="translate(543.000000, 695.000000)">
                    <g id="Group">
                        <g transform="translate(0.018302, 0.000000)" id="Shape">
                            <path d="M18.4376307,16.0467847 C18.4376307,19.061044 15.5182211,19.061044 15.5182211,19.061044 L4.43580202,19.061044 C1.51639238,19.061044 1.51639238,16.0467847 1.51639238,16.0467847 L1.51639238,4.59942797 C1.51639238,1.58516871 4.43580202,1.58516871 4.43580202,1.58516871 L15.5182211,1.58516871 C18.4376307,1.58516871 18.4376307,4.59942797 18.4376307,4.59942797 L18.4376307,16.0467847 L18.4376307,16.0467847 Z M19.9351273,16.6272004 L19.9351273,4.01901235 C19.9351273,4.01901235 19.9351273,0.0438969795 16.0850968,0.0438969795 L3.87365032,0.0438969795 C3.87365032,0.0438969795 0.023619819,0.0438969795 0.023619819,4.01901235 L0.023619819,16.6272004 C0.023619819,16.6272004 0.023619819,20.6023157 3.87365032,20.6023157 L16.0850968,20.6023157 C16.0850968,20.6023157 19.9351273,20.6023157 19.9351273,16.6272004 L19.9351273,16.6272004 Z"></path>
                            <path d="M14.2191311,10.3206676 C14.2191311,12.7398789 12.3200976,14.7006107 9.97701156,14.7006107 C7.63392551,14.7006107 5.73489206,12.7398789 5.73489206,10.3206676 C5.73489206,7.90145632 7.63392551,5.94072456 9.97701156,5.94072456 C12.3200976,5.945602 14.2191311,7.90633376 14.2191311,10.3206676 M15.7071797,10.3206676 C15.7071797,7.05278138 13.1420673,4.40433028 9.97701156,4.40433028 C6.81195581,4.40433028 4.24684346,7.05278138 4.24684346,10.3206676 C4.24684346,13.5885539 6.81195581,16.237005 9.97701156,16.237005 C13.1420673,16.237005 15.7071797,13.5885539 15.7071797,10.3206676"></path>
                            <path d="M15.7071797,5.92121479 C16.5149775,5.92121479 17.1716084,5.24325033 17.1716084,4.40920772 C17.1716084,3.57516511 16.5149775,2.89720065 15.7071797,2.89720065 C14.8993818,2.89720065 14.2427509,3.57516511 14.2427509,4.40920772 C14.2427509,5.24325033 14.8993818,5.92121479 15.7071797,5.92121479"></path>
                        </g>
                    </g>
                </g>
            </g>
        </g>
    </g>
</svg>