<?xml version="1.0" encoding="UTF-8" standalone="no"?>
<svg width="51px" height="81px" viewBox="0 0 51 81" version="1.1" xmlns="http://www.w3.org/2000/svg" xmlns:xlink="http://www.w3.org/1999/xlink">
    <!-- Generator: Sketch 40 (33762) - http://www.bohemiancoding.com/sketch -->
    <title>iconTree</title>
    <desc>Created with Sketch.</desc>
    <defs></defs>
    <g id="Page-1" stroke="none" stroke-width="1" fill="none" fill-rule="evenodd">
        <g id="Desktop-HD-Copy" transform="translate(-850.000000, -1796.000000)">
            <g id="iconTree" transform="translate(850.000000, 1796.000000)">
                <g id="jelly-beans" transform="translate(4.029231, 53.408257)">
                    <g id="Capa_1" transform="translate(20.000000, 16.336417) rotate(-300.000000) translate(-20.000000, -16.336417) translate(5.853659, 4.781390)">
                        <g id="Group" transform="translate(-0.000000, -0.000000)">
                            <path d="M21.7972677,17.8884427 C25.6047405,14.7333468 27.7671958,11.096403 27.8863862,7.64743239 C28.0210904,3.74977186 25.1430193,0.577038724 21.0429624,0.103264812 C20.6769721,0.0610139617 20.3047384,0.039535793 19.9365723,0.039535793 C15.9240163,0.039535793 12.5777917,2.45230234 12.1529629,5.65184399 C11.9782448,6.96773457 11.5243751,7.82145259 10.5865544,8.59858603 C9.64873363,9.37571948 8.61849299,9.75174421 7.03051672,9.89660427 C5.01931974,10.0799526 3.21226006,10.9256751 1.94231418,12.277859 C0.623840759,13.6817788 0.0378210394,15.4989573 0.334756617,17.2634594 C0.887951664,20.5511085 4.59080169,22.9376153 9.13914716,22.9379288 C9.24112121,22.9360475 9.33846008,22.9366746 9.43873141,22.934323 C13.6007485,22.8354764 17.9897949,21.0435387 21.7972677,17.8884427 L21.7972677,17.8884427 Z M15.6658649,2.52034267 C16.8523775,1.67893149 18.3691233,1.21550472 19.9364777,1.21550472 C20.3282927,1.21550472 20.6459447,1.47865149 20.6459447,1.8034108 C20.6459447,2.12817012 20.3282927,2.39131688 19.9364777,2.39131688 C18.7072079,2.39131688 17.5182359,2.75440768 16.5884558,3.41372475 C16.4546976,3.50857359 16.2906688,3.55497898 16.1274914,3.55497898 C15.9273272,3.55497898 15.7284872,3.48521413 15.5881073,3.34929024 C15.3333614,3.10260485 15.3681726,2.73151853 15.6658649,2.52034267 L15.6658649,2.52034267 Z M7.34079027,12.2341188 C7.3144927,12.2364705 7.28828972,12.2377247 7.26237052,12.2377247 C6.90527215,12.2377247 6.59802565,12.0149474 6.55801171,11.7140179 C6.51515991,11.3912967 6.79620343,11.1008711 7.1856535,11.0653616 C9.07444377,10.8932227 10.4328365,10.3887992 11.5899299,9.430042 C12.746834,8.47128477 13.3555567,7.34571899 13.5632886,5.78047784 C13.6061404,5.4577566 13.9564279,5.22580806 14.3460672,5.26037693 C14.7355172,5.29588646 15.0165608,5.58631206 14.9737089,5.90903331 C14.7281388,7.75827228 13.9939824,9.10057944 12.5932108,10.2613412 C11.1924392,11.4223381 9.57248958,12.0307033 7.34079027,12.2341188 L7.34079027,12.2341188 Z" id="Shape" fill="#695A69"></path>
                            <path d="M14.9738035,5.90911169 C15.0166553,5.58639045 14.7356118,5.29596485 14.3461618,5.26045532 C13.9564279,5.22588644 13.606235,5.45783499 13.5633832,5.78055623 C13.3555567,7.34579737 12.7469286,8.47128477 11.5900245,9.43012039 C10.4329311,10.3888776 9.07463296,10.893301 7.18574809,11.0654399 C6.79620343,11.1009495 6.5152545,11.3913751 6.55810631,11.7140963 C6.59802565,12.0150258 6.90536674,12.237803 7.26246512,12.237803 C7.28838431,12.237803 7.31458729,12.2365488 7.34088487,12.2341972 C9.57248958,12.0307817 11.1924392,11.4224165 12.5933054,10.261498 C13.994077,9.10065782 14.7282334,7.75827228 14.9738035,5.90911169 L14.9738035,5.90911169 Z" id="Shape" fill="#FFFFFF"></path>
                            <path d="M16.1274914,3.55490059 C16.2906688,3.55490059 16.4546976,3.50849521 16.5884558,3.41364636 C17.5181413,2.75432929 18.7071134,2.39123849 19.9364777,2.39123849 C20.3282927,2.39123849 20.6459447,2.12809173 20.6459447,1.80333242 C20.6459447,1.4785731 20.3282927,1.21542634 19.9364777,1.21542634 C18.3691233,1.21542634 16.8524721,1.6788531 15.6658649,2.52026428 C15.3681726,2.73136176 15.3333614,3.10252646 15.5881073,3.34913347 C15.7283926,3.48521413 15.9273272,3.55490059 16.1274914,3.55490059 L16.1274914,3.55490059 Z" id="Shape" fill="#FFFFFF"></path>
                        </g>
                    </g>
                </g>
                <g id="tree" transform="translate(0.638000, 0.500000)">
                    <g id="Capa_1">
                        <g id="Group">
                            <path d="M22.9798148,51.915661 L22.9798148,71.9358862 C22.9798148,72.5471617 22.3768519,73.0426342 21.632963,73.0426342 L24.3264815,73.0426342 L25,73.0426342 L25,52.0151816 C24.3161111,52.0151816 23.6422222,51.9807907 22.9798148,51.915661 L22.9798148,51.915661 Z" id="Shape" fill="#826E77"></path>
                            <path d="M25,73.0426342 L25.6733333,73.0426342 L28.3668519,73.0426342 C27.622963,73.0426342 27.02,72.5471617 27.02,71.9358862 L27.02,51.915661 C26.3575926,51.9807907 25.6837037,52.0151816 24.9998148,52.0151816 L24.9998148,73.0426342 L25,73.0426342 Z" id="Shape" fill="#695A69"></path>
                            <path d="M32.3877778,2.52468822 C32.5385067,2.64441541 32.6868646,2.76655524 32.8342063,2.88990139 C32.6868646,2.76685682 32.5388454,2.64471699 32.3877778,2.52468822 L32.3877778,2.52468822 Z" id="Shape" fill="#7CDAAF"></path>
                            <path d="M33.5196296,3.47226422 C33.6705469,3.5928453 33.819778,3.71429386 33.9660582,3.8374774 C33.819778,3.71429386 33.6705469,3.5928453 33.5196296,3.47226422 L33.5196296,3.47226422 Z" id="Shape" fill="#7CDAAF"></path>
                            <path d="M33.1594444,3.14265934 C33.3104711,3.26273745 33.4591502,3.38486567 33.605873,3.50787251 C33.458759,3.38486567 33.3100799,3.26303032 33.1594444,3.14265934 L33.1594444,3.14265934 Z" id="Shape" fill="#7CDAAF"></path>
                            <path d="M32.7816667,2.82659777 C32.9326592,2.94665157 33.0811049,3.06878551 33.2280952,3.19181094 C33.0811049,3.06848835 32.9326592,2.94665157 32.7816667,2.82659777 L32.7816667,2.82659777 Z" id="Shape" fill="#7CDAAF"></path>
                            <path d="M34.1864815,4.17043007 C34.3230886,4.29113133 34.4583565,4.4126806 34.5904993,4.53564324 C34.4588029,4.4126806 34.3235351,4.29113133 34.1864815,4.17043007 L34.1864815,4.17043007 Z" id="Shape" fill="#7CDAAF"></path>
                            <path d="M33.8624074,3.81510809 C34.0106217,3.93570274 34.1566038,4.05715469 34.2999074,4.18032126 C34.1566038,4.05715469 34.0106217,3.93570274 33.8624074,3.81510809 L33.8624074,3.81510809 Z" id="Shape" fill="#7CDAAF"></path>
                            <path d="M34.492037,4.53823017 C34.617037,4.65921931 34.7415906,4.78048917 34.8621263,4.90344334 C34.7415906,4.78048917 34.617037,4.65921931 34.492037,4.53823017 L34.492037,4.53823017 Z" id="Shape" fill="#7CDAAF"></path>
                            <path d="M30.1925926,1.24385519 C30.3432651,1.36154956 30.4916089,1.48448936 30.6390212,1.60906836 C30.4916089,1.48416152 30.343498,1.36154956 30.1925926,1.24385519 L30.1925926,1.24385519 Z" id="Shape" fill="#7CDAAF"></path>
                            <path d="M31.1133333,1.70858895 C31.2641501,1.82725142 31.4125034,1.95004958 31.5597619,2.07380212 C31.4122297,1.95004958 31.2641501,1.82756955 31.1133333,1.70858895 L31.1133333,1.70858895 Z" id="Shape" fill="#7CDAAF"></path>
                            <path d="M30.6594444,1.4678526 C30.8101109,1.58592418 30.9582452,1.70917149 31.105873,1.83306577 C30.9584984,1.70917149 30.8103641,1.58624766 30.6594444,1.4678526 L30.6594444,1.4678526 Z" id="Shape" fill="#7CDAAF"></path>
                            <path d="M31.552963,1.96530338 C31.7037357,2.0843335 31.8521526,2.20711261 31.9993915,2.33051655 C31.8518581,2.2068002 31.7037357,2.0843335 31.552963,1.96530338 L31.552963,1.96530338 Z" id="Shape" fill="#7CDAAF"></path>
                            <path d="M31.977963,2.23753936 C32.1287749,2.35692417 32.2770575,2.479378 32.4243915,2.60275253 C32.2770575,2.4790711 32.1287749,2.35692417 31.977963,2.23753936 L31.977963,2.23753936 Z" id="Shape" fill="#7CDAAF"></path>
                            <path d="M36.0461111,7.42097947 C36.0956647,7.54281343 36.1487897,7.66349256 36.1947718,7.78619264 C36.1487897,7.66349256 36.0956647,7.54281343 36.0461111,7.42097947 L36.0461111,7.42097947 Z" id="Shape" fill="#7CDAAF"></path>
                            <path d="M25.0012963,0.0165867649 C26.665,0.0916076371 28.2388889,0.442973142 29.6572222,1.01468393 C28.2388889,0.44282097 26.6651852,0.0917598093 25.0012963,0.0165867649 L25.0012963,0.0165867649 Z" id="Shape" fill="#7CDAAF"></path>
                            <path d="M36.1781481,7.87749593 C36.2160946,7.99943638 36.2585053,8.12016047 36.2933267,8.2427091 C36.2589517,8.11985638 36.216541,7.99913229 36.1781481,7.87749593 L36.1781481,7.87749593 Z" id="Shape" fill="#7CDAAF"></path>
                            <path d="M36.2881481,8.35972949 C36.3127017,8.48170709 36.342166,8.60224543 36.364041,8.72494266 C36.342166,8.60224543 36.3127017,8.48170709 36.2881481,8.35972949 L36.2881481,8.35972949 Z" id="Shape" fill="#7CDAAF"></path>
                            <path d="M35.8905556,6.97694112 C35.9512698,7.09867884 36.0146627,7.21957312 36.0713591,7.34215429 C36.0146627,7.21957312 35.9512698,7.09867884 35.8905556,6.97694112 L35.8905556,6.97694112 Z" id="Shape" fill="#7CDAAF"></path>
                            <path d="M35.042963,5.3080691 C35.1465344,5.42925347 35.2505522,5.55043784 35.3496594,5.67328227 C35.2505522,5.55043784 35.1465344,5.42925347 35.042963,5.3080691 L35.042963,5.3080691 Z" id="Shape" fill="#7CDAAF"></path>
                            <path d="M35.2875926,5.70949924 C35.3804497,5.83077758 35.4741997,5.95178028 35.563039,6.07471241 C35.4741997,5.95178028 35.3804497,5.83077758 35.2875926,5.70949924 L35.2875926,5.70949924 Z" id="Shape" fill="#7CDAAF"></path>
                            <path d="M35.5107407,6.12173361 C35.5928836,6.24319528 35.6763657,6.36410486 35.7544907,6.48694678 C35.6763657,6.36382881 35.5928836,6.24291923 35.5107407,6.12173361 L35.5107407,6.12173361 Z" id="Shape" fill="#7CDAAF"></path>
                            <path d="M35.7118519,6.54416351 C35.7832804,6.66562393 35.8569411,6.78652973 35.9243519,6.90937668 C35.8569411,6.78652973 35.7832804,6.66562393 35.7118519,6.54416351 L35.7118519,6.54416351 Z" id="Shape" fill="#7CDAAF"></path>
                            <path d="M34.7775926,4.91759535 C34.8918783,5.03868356 35.0057176,5.15977177 35.1159854,5.28280852 C35.006164,5.15977177 34.8918783,5.03868356 34.7775926,4.91759535 L34.7775926,4.91759535 Z" id="Shape" fill="#7CDAAF"></path>
                            <path d="M29.712963,1.03659672 C29.8636114,1.15358424 30.0119258,1.27653713 30.1593915,1.40180989 C30.0119258,1.27653713 29.8636114,1.15358424 29.712963,1.03659672 L29.712963,1.03659672 Z" id="Shape" fill="#7CDAAF"></path>
                            <path d="M25,49.2483874 C22.2107407,49.2483874 19.9494444,47.3903654 19.9494444,45.0983484 C19.9494444,42.8061793 22.2105556,40.9481573 25,40.9481573 L25,38.1813632 C19.4212963,38.1813632 14.8990741,34.465167 14.8990741,29.881133 C14.8990741,25.2969468 19.4214815,21.5807506 25,21.5807506 L25,14.1104674 C27.7892593,14.1104674 30.0505556,12.2524454 30.0505556,9.96027621 C30.0505556,7.66810705 27.7894444,5.81008504 25,5.81008504 L25,0.0165867649 C24.7768519,0.00654340265 24.5527778,0 24.3266667,0 C18.037037,0 12.8674074,3.93654147 12.265,8.97480934 C8.2237037,10.7419846 5.4712963,14.2366181 5.4712963,18.2606586 C5.4712963,19.6315775 5.79407407,20.9398015 6.37481481,22.140592 C2.57111111,24.344197 0.0840740741,27.9795897 0.0840740741,32.094477 C0.0840740741,37.2232873 3.94574074,41.6082801 9.4087037,43.4011724 C11.672963,47.9631414 16.8131481,51.3092549 22.9796296,51.915661 C23.642037,51.9807907 24.3159259,52.0151816 24.9998148,52.0151816 L24.9998148,49.2483874 L25,49.2483874 Z M13.2155556,17.9840096 C13.2155556,16.6088298 14.5722222,15.4938644 16.2459259,15.4938644 C17.9194444,15.4938644 19.2762963,16.6086776 19.2762963,17.9840096 C19.2762963,19.3593415 17.9196296,20.4741547 16.2459259,20.4741547 C14.5722222,20.4740025 13.2155556,19.3591893 13.2155556,17.9840096 L13.2155556,17.9840096 Z" id="Shape" fill="#98D9B3"></path>
                            <path d="M42.5333333,21.5652291 C42.952037,20.5257411 43.1818519,19.4156452 43.1818519,18.2606586 C43.1818519,14.2366181 40.4294444,10.7419846 36.3883333,8.97480934 C36.3698148,8.82020243 36.3468519,8.66666072 36.3198148,8.51418423 C36.3105556,8.46229352 36.2983333,8.41131585 36.2883333,8.35972949 C36.2687037,8.25960021 36.2494444,8.15931876 36.2261111,8.06025469 C36.2116667,7.99892931 36.1940741,7.93851696 36.1783333,7.87749593 C36.1555556,7.78938825 36.1335185,7.70082406 36.107963,7.61362941 C36.0888889,7.54895625 36.0668519,7.48519612 36.0462963,7.42113164 C36.02,7.3388065 35.9944444,7.25632919 35.9655556,7.17476492 C35.942037,7.10826569 35.9157407,7.04298383 35.8905556,6.97709329 C35.8609259,6.89948549 35.832037,6.82157335 35.8,6.74472641 C35.772037,6.67731415 35.7414815,6.61096709 35.7118519,6.54431568 C35.6790741,6.47036002 35.6466667,6.39625218 35.6116667,6.32305737 C35.5792593,6.25534076 35.5446296,6.18868936 35.5105556,6.12173361 C35.4748148,6.0512779 35.4392593,5.98067002 35.4016667,5.91112735 C35.3648148,5.84325857 35.3259259,5.77645499 35.2874074,5.70949924 C35.2488889,5.64239132 35.2103704,5.57513123 35.17,5.50893634 C35.1288889,5.44137191 35.0857407,5.3747205 35.0427778,5.3080691 C35.0016667,5.24415679 34.9605556,5.18024449 34.9177778,5.11724522 C34.8722222,5.0501373 34.825,4.98394241 34.7774074,4.91759535 C34.7338889,4.85687866 34.6903704,4.79616197 34.6453704,4.73620614 C34.5953704,4.66955474 34.5437037,4.60381637 34.4918519,4.53823017 C34.4464815,4.48086127 34.4007407,4.42349236 34.3538889,4.36703649 C34.2990741,4.30084161 34.242963,4.23540758 34.1862963,4.17043007 C34.1392593,4.11656113 34.092037,4.06284436 34.0437037,4.00973628 C33.9842593,3.94415008 33.9235185,3.87947691 33.8622222,3.81526026 C33.8138889,3.76458693 33.7651852,3.71437012 33.7155556,3.66460983 C33.6511111,3.59978449 33.5857407,3.53572001 33.5194444,3.4724164 C33.4703704,3.4253952 33.4205556,3.37883052 33.3703704,3.33257019 C33.3009259,3.26865788 33.2305556,3.20535427 33.1590741,3.14281151 C33.1094444,3.09944245 33.0590741,3.0565299 33.0085185,3.01376952 C32.9337037,2.95061808 32.8581481,2.8882275 32.7812963,2.82674994 C32.7318519,2.78718518 32.6816667,2.74822911 32.6314815,2.70927304 C32.5511111,2.64703463 32.47,2.58540491 32.3874074,2.52499256 C32.3385185,2.48923211 32.2887037,2.45408034 32.2390741,2.4187764 C32.1527778,2.35760319 32.0659259,2.2968865 31.9775926,2.23769153 C31.93,2.20588755 31.8816667,2.17469226 31.8333333,2.14349697 C31.7405556,2.0832368 31.6474074,2.02358531 31.5525926,1.96560772 C31.5072222,1.93776022 31.4609259,1.91097792 31.415,1.8837391 C31.3151852,1.82454413 31.215,1.76580568 31.112963,1.70904547 C31.0709259,1.68561096 31.0281481,1.66324165 30.9855556,1.64026366 C30.8775926,1.58182955 30.7694444,1.52400413 30.6590741,1.46846129 C30.6222222,1.44974412 30.5844444,1.43209215 30.5472222,1.41383149 C30.4298148,1.35600607 30.312037,1.29894151 30.1922222,1.24431171 C30.1624074,1.23076839 30.132037,1.2181381 30.1022222,1.20474695 C29.9735185,1.14737805 29.8440741,1.09077 29.7125926,1.03705323 C29.6942593,1.0295968 29.6753704,1.02259688 29.6568519,1.01514044 C28.2385185,0.443429659 26.6646296,0.0920641536 25.0009259,0.0170432813 C25.0005556,0.0170432813 25,0.0170432813 24.9996296,0.0168911092 L24.9996296,0.0168911092 L24.9996296,5.81054155 C27.7888889,5.81054155 30.0501852,7.66856356 30.0501852,9.96073273 C30.0501852,12.2527497 27.7890741,14.1109239 24.9996296,14.1109239 L24.9996296,21.5812071 C19.4209259,21.5812071 14.8987037,25.2974033 14.8987037,29.8815895 C14.8987037,34.4657757 19.4211111,38.1818197 24.9996296,38.1818197 L24.9996296,40.9486138 C22.2103704,40.9486138 19.9490741,42.8066358 19.9490741,45.098805 C19.9490741,47.390822 22.2101852,49.248844 24.9996296,49.248844 L24.9996296,52.0156381 C25.6835185,52.0156381 26.3574074,51.9812472 27.0198148,51.9161175 C33.1862963,51.3097115 38.3264815,47.9635979 40.5907407,43.4016289 C46.0537037,41.6087366 49.9153704,37.2237438 49.9153704,32.0949335 C49.9157407,27.5976376 46.9464815,23.6732699 42.5333333,21.5652291 L42.5333333,21.5652291 Z M36.4477778,39.5647602 C32.9146296,39.5647602 30.0505556,37.2111135 30.0505556,34.3079731 C30.0505556,31.4046806 32.9146296,29.051186 36.4477778,29.051186 C39.9809259,29.051186 42.845,31.4046806 42.845,34.3079731 C42.8451852,37.2111135 39.9809259,39.5647602 36.4477778,39.5647602 L36.4477778,39.5647602 Z" id="Shape" fill="#6EB0AC"></path>
                            <ellipse id="Oval" fill="#98D9B3" cx="36.4477778" cy="34.3079731" rx="6.39722222" ry="5.25678708"></ellipse>
                            <ellipse id="Oval" fill="#65B1A8" cx="16.2457407" cy="17.9840096" rx="3.03037037" ry="2.49014514"></ellipse>
                        </g>
                    </g>
                </g>
            </g>
        </g>
    </g>
</svg>