<?xml version="1.0" encoding="UTF-8" standalone="no"?>
<svg width="70px" height="72px" viewBox="0 0 70 72" version="1.1" xmlns="http://www.w3.org/2000/svg" xmlns:xlink="http://www.w3.org/1999/xlink">
    <!-- Generator: Sketch 40 (33762) - http://www.bohemiancoding.com/sketch -->
    <title>Group 28</title>
    <desc>Created with Sketch.</desc>
    <defs></defs>
    <g id="Page-1" stroke="none" stroke-width="1" fill="none" fill-rule="evenodd">
        <g id="Desktop-HD-Copy" transform="translate(-336.000000, -5948.000000)" fill="#6DA8D6">
            <g id="Sugestões-de-curso" transform="translate(312.000000, 5771.000000)">
                <g id="Group-28" transform="translate(24.000000, 177.000000)">
                    <path d="M62.6721759,37.7361322 C51.759999,57.408595 37.9361472,63.9663471 37.9361472,63.9663471 C30.4935356,68.7778512 22.748914,69.9500826 17.0059951,69.9500826 C11.727919,69.9500826 8.13967885,68.9583471 8.03362055,68.8905124 C4.68706719,66.7360661 1.58929743,63.0230083 2.53120553,51.3193388 C3.09146146,44.3648926 8.35258399,31.6476694 13.4433824,25.5584132 C29.1033439,6.83642975 42.2175119,2.24786777 51.0073399,2.24786777 C56.2960613,2.24786777 60.0215069,3.90961983 61.7941393,5.15603306 C61.4814842,5.29804959 61.1727717,5.44561983 60.8676077,5.5987438 C60.6109387,5.72846281 60.5088231,6.03510744 60.6468172,6.28581818 C60.7406532,6.45957025 60.9243824,6.55715702 61.1120543,6.55715702 C61.1960336,6.55715702 61.2784358,6.53930579 61.3584723,6.49884298 L61.3584723,6.50082645 C61.6604822,6.34849587 61.9668291,6.19973554 62.280667,6.05890909 C62.4119585,6.00059504 62.5073715,5.89586777 62.553501,5.77408264 L63.6412885,6.82452893 C63.6412885,6.82452893 73.5851413,18.0652562 62.6721759,37.7361322 M65.246751,5.50076033 L65.1943132,5.43966942 L65.1351729,5.38056198 L63.9243735,4.2138843 L63.8959862,4.18571901 L63.866416,4.15953719 C61.8343547,2.33831405 57.2458547,0.20846281 51.0073399,0.20846281 C42.3058281,0.20846281 28.4417609,4.38565289 11.8036186,24.2790744 C6.56378656,30.5420826 1.03732115,43.608 0.428570158,51.1622479 C-0.602836957,63.9635702 3.10289526,68.1665455 6.86619071,70.5871736 C7.57942292,71.0568595 11.8272747,71.9894876 17.0071779,71.9894876 C22.6010632,71.9894876 30.9465504,70.9033388 39.0042213,65.7296529 C40.5765652,64.9469752 53.8780109,57.9123967 64.5311532,38.6997025 C75.9968834,18.0378843 65.6922747,6.0033719 65.246751,5.50076033" id="Fill-2"></path>
                    <path d="M13.7258366,58.5924099 C13.4774472,58.444443 13.1517812,58.517038 12.9991992,58.7558479 C12.8079789,59.0529719 12.6250381,59.3437488 12.4440688,59.6273851 C12.2899097,59.8665917 12.3679749,60.1787901 12.617547,60.3283438 C12.7042862,60.379914 12.7989107,60.4037157 12.8939294,60.4037157 C13.0701676,60.4037157 13.2420688,60.3180298 13.3441844,60.1617322 C13.5227881,59.8765091 13.7061231,59.5881124 13.8953721,59.2929719 C14.0483484,59.0529719 13.9730431,58.7379967 13.7258366,58.5924099" id="Fill-4"></path>
                    <path d="M17.1165875,53.4177322 C16.8717465,53.2673851 16.5456863,53.3340298 16.3879788,53.5704595 C16.1951813,53.8572694 16.0047495,54.1456661 15.8182604,54.4304926 C15.6609471,54.6653355 15.7307327,54.9803107 15.9763622,55.1334347 C16.0650726,55.1869884 16.1632456,55.2127736 16.2606299,55.2127736 C16.4333197,55.2127736 16.6052208,55.1286744 16.7057594,54.9775339 C16.8922485,54.6978645 17.0834689,54.4110545 17.2762663,54.1218645 C17.4320025,53.8838479 17.3618226,53.5680793 17.1165875,53.4177322" id="Fill-6"></path>
                    <path d="M15.408418,55.9966413 C15.1616057,55.8462942 14.8343626,55.9184926 14.6821749,56.1569058 C14.4905603,56.448476 14.3020998,56.735286 14.117582,57.0205091 C13.9622401,57.2589223 14.0371512,57.5746909 14.2843577,57.7226579 C14.3714911,57.7742281 14.468087,57.8000132 14.5623172,57.8000132 C14.7389496,57.8000132 14.9112451,57.7143273 15.0137549,57.5616 C15.1974842,57.2791537 15.3839733,56.9919471 15.5751937,56.6995835 C15.72817,56.4611702 15.6544417,56.1457983 15.408418,55.9966413" id="Fill-8"></path>
                    <path d="M10.4313661,63.8274645 C10.1786398,63.6818777 9.85533943,63.7639934 9.70551729,64.0075636 C9.51390267,64.3217455 9.33845306,64.6160926 9.16931176,64.8886215 C9.01948962,65.1298116 9.10465168,65.4428033 9.35580089,65.5875967 C9.43978014,65.6332165 9.53203903,65.6566215 9.62153804,65.6566215 C9.80408449,65.6566215 9.97992836,65.567762 10.0800726,65.4063074 C10.2476369,65.1298116 10.4250578,64.8390347 10.6154896,64.5268364 C10.7633404,64.2836628 10.6817268,63.9714645 10.4313661,63.8274645" id="Fill-10"></path>
                    <path d="M8.824642,66.4747636 C8.57073291,66.3339372 8.24822105,66.4192264 8.10352441,66.6639868 C7.75775069,67.2479207 7.57323291,67.5636893 7.57323291,67.5656727 C7.43050761,67.8076562 7.52197796,68.1210446 7.77549279,68.2583008 C7.85710642,68.303524 7.94502836,68.322962 8.03373883,68.322962 C8.21943943,68.322962 8.39764891,68.2297388 8.49463903,68.0623339 C8.49463903,68.0575736 8.67284852,67.7513256 9.01862223,67.1729455 C9.16253034,66.9242182 9.07697401,66.6144 8.824642,66.4747636" id="Fill-12"></path>
                    <path d="M12.0650188,61.1993653 C11.8146581,61.0549686 11.4909634,61.1343074 11.33917,61.3762909 C11.1495267,61.6730182 10.9677688,61.9665719 10.7911364,62.2498116 C10.6417085,62.4890182 10.7229279,62.8043901 10.9721057,62.9479934 C11.0576621,62.9975802 11.1522866,63.0225719 11.2445455,63.0225719 C11.4235435,63.0225719 11.5982045,62.9333157 11.6967717,62.774638 C11.8722213,62.4921917 12.0551621,62.2010182 12.242834,61.9011174 C12.3930504,61.6607207 12.3138024,61.3481256 12.0650188,61.1993653" id="Fill-14"></path>
                    <path d="M18.8501873,50.855524 C18.6069234,50.7008132 18.2804689,50.7654744 18.1203958,51.0015074 C17.9244442,51.2871273 17.7312525,51.5739372 17.538455,51.8567802 C17.3783819,52.089243 17.4493503,52.405805 17.6930084,52.5613091 C17.7817189,52.6176397 17.8818631,52.6430281 17.9804303,52.6430281 C18.1535143,52.6430281 18.3226556,52.5613091 18.4247712,52.4125488 C18.6140203,52.1297058 18.8044521,51.8472595 19.0011922,51.5588628 C19.1612653,51.3252099 19.0930568,51.009838 18.8501873,50.855524" id="Fill-16"></path>
                    <path d="M59.0030318,6.63106116 C58.6982621,6.81949091 58.3986178,7.00792066 58.1037047,7.20190413 C57.862018,7.35820165 57.798935,7.67397025 57.9609794,7.91000331 C58.0638836,8.05519339 58.2298708,8.13334215 58.3986178,8.13334215 C58.4999449,8.13334215 58.6032433,8.10478017 58.6947136,8.04448264 L58.6958964,8.04448264 C58.981347,7.8552595 59.2695575,7.67397025 59.5628935,7.49545785 C59.8101,7.34669752 59.8861939,7.0325157 59.7304577,6.7929124 C59.5759043,6.55648264 59.2490555,6.48309421 59.0030318,6.63106116" id="Fill-18"></path>
                    <path d="M53.9218141,10.4337719 C53.6541056,10.6713917 53.3966481,10.9078215 53.1474703,11.1430612 C52.9349594,11.3366479 52.9337766,11.6627306 53.1352479,11.8622678 C53.2401234,11.9654083 53.377329,12.0161851 53.5137459,12.0161851 C53.6477973,12.0161851 53.7806659,11.9689785 53.8827815,11.8721851 C54.1264396,11.645276 54.3771946,11.4128132 54.6397776,11.179557 C54.8518942,10.987557 54.8676649,10.6654413 54.6693477,10.4579702 C54.4686649,10.2552595 54.1355078,10.2405818 53.9218141,10.4337719" id="Fill-20"></path>
                    <path d="M56.3717609,8.42142149 C56.0851275,8.63563636 55.8044081,8.8526281 55.534334,9.07041322 C55.3103893,9.24932231 55.2796364,9.57183471 55.4649427,9.78961983 C55.5698182,9.91021488 55.7196403,9.97209917 55.8714338,9.97209917 C55.9901087,9.97209917 56.1107549,9.93480992 56.2097164,9.85507438 L56.2073508,9.85507438 C56.4734822,9.64403306 56.7423735,9.43418182 57.0191502,9.22631405 C57.250586,9.05494215 57.2908014,8.73480992 57.1106206,8.51345455 C56.9328053,8.2905124 56.6024081,8.25044628 56.3717609,8.42142149" id="Fill-22"></path>
                    <path d="M20.6064969,48.3054545 C20.3636274,48.1495537 20.0344129,48.2122314 19.8743398,48.4470744 C19.6760226,48.7319008 19.480071,49.0119669 19.2860908,49.2952066 C19.126412,49.5296529 19.189495,49.8446281 19.4331531,50.0013223 C19.5230463,50.0592397 19.6255562,50.087405 19.7245177,50.087405 C19.8956303,50.087405 20.0639831,50.0072727 20.1637331,49.8600992 C20.3588961,49.5808264 20.5544535,49.2963967 20.7507993,49.0119669 C20.9144208,48.778314 20.8470009,48.4621488 20.6064969,48.3054545" id="Fill-24"></path>
                    <path d="M52.3944169,12.5942876 C52.181906,12.4007008 51.8491432,12.412205 51.650826,12.6192793 C51.6441234,12.6256264 51.6378151,12.6327669 51.6311125,12.6399074 C50.9931857,12.4324364 50.2633942,12.5649322 49.7567588,13.0520727 C48.7411224,14.0204033 47.3801066,15.3663868 45.814071,16.9531636 C44.3663161,15.9848331 43.3944436,15.4909488 43.3703932,15.4778579 C42.9173784,15.2485686 42.363825,15.4159736 42.1284465,15.8523372 C41.8942509,16.2843372 42.0669406,16.819081 42.5171956,17.0483702 L42.5171956,17.0475769 C42.5199554,17.0483702 43.3021847,17.4474446 44.5338803,18.2535273 C43.8809712,18.9199736 43.2016461,19.6165686 42.5030019,20.3397421 C41.0580068,19.243676 40.0727292,18.6692628 40.0403991,18.6470479 C39.4970967,18.3328661 38.7909614,18.5026512 38.4664782,19.0274777 C38.1372637,19.5515107 38.3146847,20.232238 38.8571985,20.5484033 L38.8571985,20.5464198 C38.8615355,20.5484033 39.6709693,21.019676 40.9357835,21.9681719 C40.1157044,22.824238 39.2794604,23.7009322 38.4341481,24.595081 C37.0289742,23.3177256 36.0397539,22.6247008 36.0086066,22.6028826 C35.4932973,22.2442711 34.7761224,22.3557421 34.4055098,22.8520066 C34.0341086,23.3466843 34.1500236,24.0373289 34.6641501,24.3975273 C34.6641501,24.4007008 35.4838349,24.9667835 36.7269643,26.0866512 C36.7782193,26.1318744 36.8373596,26.1897917 36.887826,26.237395 C36.2065295,26.9649322 35.5260216,27.6940562 34.8490622,28.425957 C33.4261461,27.1291636 32.4250977,26.4254281 32.393162,26.4028165 C31.879824,26.044205 31.1618606,26.1564694 30.7916422,26.6531306 C30.4198467,27.1466182 30.5353675,27.8380562 31.0487054,28.1978579 C31.0498882,28.1994446 31.8679959,28.7651306 33.1119139,29.8877752 C33.1773625,29.946486 33.2546392,30.0230479 33.3220592,30.0841388 C33.2187608,30.1956099 33.113491,30.3098579 33.0117697,30.4237091 C32.0245207,31.5043041 31.0790641,32.5678413 30.1754001,33.6008331 C28.4240582,32.4702545 27.2128645,31.900205 27.175409,31.8799736 C26.603325,31.6145851 25.9176916,31.8446678 25.6428863,32.394486 C25.3633497,32.9462876 25.6050365,33.6063868 26.1751491,33.8757421 L26.1751491,33.8737587 C26.1763319,33.8757421 27.0835444,34.2966347 28.5123744,35.1923702 C28.5671778,35.2272793 28.6342035,35.2736926 28.6913724,35.3097917 C27.9107203,36.2158413 27.1726491,37.0889653 26.4917469,37.9081388 C24.7467133,36.7811306 23.5390681,36.211081 23.5024011,36.1932298 C22.9314999,35.9262545 22.2446837,36.1563372 21.9714554,36.7081388 C21.6931017,37.2595438 21.9320286,37.919643 22.503324,38.1862215 L22.5013527,38.1862215 C22.5056896,38.1862215 23.4105365,38.6122711 24.8393665,39.5068165 C24.9071807,39.5488661 24.9852459,39.6028165 25.0534544,39.6468496 C24.1553102,40.7445025 23.3896402,41.6985521 22.7899574,42.4550479 C21.0441353,41.3284364 19.8376728,40.7579901 19.799823,40.7401388 C19.2297104,40.4719736 18.5421056,40.7052298 18.2684831,41.2570314 C17.9905236,41.8052628 18.228662,42.4697256 18.8003517,42.7367008 L18.7987746,42.7331306 C18.8031116,42.7367008 19.7079584,43.1568 21.1387598,44.0541223 C21.2203734,44.1068826 21.3197292,44.1735273 21.4037084,44.2282711 C21.3425967,44.3072132 21.3000157,44.3635438 21.2980444,44.3651306 C20.817825,44.9934942 20.8406926,45.8265521 21.2846392,46.4327008 C21.2101224,46.5390149 21.1328458,46.6441388 21.0587232,46.7512463 C20.8923418,46.9829157 20.9558191,47.2982876 21.1975058,47.457362 C21.2881876,47.5172628 21.3922746,47.5450314 21.4924189,47.5450314 C21.6603774,47.5450314 21.825576,47.4672793 21.9292687,47.3216926 L21.9320286,47.3216926 C21.994323,47.231643 22.0581946,47.1419901 22.1216718,47.0543207 C22.3337884,47.1320727 22.5537904,47.1844364 22.7753695,47.1844364 C23.3391738,47.1844364 23.8974584,46.9357091 24.256243,46.4640397 L24.2546659,46.4620562 C24.2554544,46.4592793 24.2925157,46.411676 24.345742,46.3414612 C25.0167875,46.8734281 25.7000552,47.4474446 26.3923912,48.0988165 C26.6155473,48.3102545 26.902575,48.413395 27.1919683,48.413395 C27.4880641,48.413395 27.7869199,48.303114 28.0132301,48.081362 C28.4532341,47.6410314 28.4441659,46.9400727 27.9911511,46.5156099 C27.228241,45.7983868 26.4684851,45.1474116 25.7347509,44.5658579 C26.2342894,43.9370975 26.8398863,43.1806017 27.5535127,42.3035107 C27.6950552,42.1285686 27.8496086,41.9405355 27.9990365,41.7600397 C28.6830928,42.3035107 29.3841027,42.888238 30.0914208,43.555081 C30.3141827,43.7673124 30.6019989,43.8700562 30.8913922,43.8700562 C31.1894594,43.8700562 31.4883151,43.7585851 31.7134426,43.5376264 C32.1546293,43.0988826 32.1475325,42.397924 31.6945177,41.9718744 C30.9308191,41.2526678 30.1706689,40.6016926 29.4369347,40.0197421 C30.120991,39.2021554 30.8610335,38.3294281 31.6412914,37.4221884 C32.3367815,37.9708165 33.0476481,38.5642711 33.7671886,39.240238 C33.9883734,39.4520727 34.2773724,39.5556099 34.56716,39.5556099 C34.8652272,39.5556099 35.1632944,39.4457256 35.3892104,39.2231802 C35.8284258,38.7860231 35.8221175,38.0858579 35.3679199,37.6566347 C34.6089525,36.9433785 33.8511679,36.2971636 33.1221649,35.7168 C33.9678714,34.7560066 34.8474851,33.7678413 35.7606116,32.765395 C35.7897875,32.7348496 35.8205404,32.703114 35.847745,32.6705851 C36.4143092,33.3120397 36.9891531,33.9943537 37.5561116,34.7548165 C37.7804505,35.0574942 38.1329268,35.2157752 38.4881629,35.2157752 C38.7211758,35.2157752 38.9537944,35.1487339 39.1572371,35.0094942 C39.6709693,34.6508826 39.7892499,33.9606347 39.4198201,33.4627835 C38.7440434,32.5567339 38.05841,31.7343868 37.3913072,30.9917752 C38.0607756,30.2654281 38.7365523,29.5386843 39.4146946,28.8147174 C39.996241,29.4708496 40.5856728,30.1690314 41.1684021,30.9560727 C41.392741,31.2571636 41.7464001,31.4182215 42.1016363,31.4182215 C42.3342548,31.4182215 42.5660849,31.3507835 42.7718932,31.2083702 C43.2816827,30.8501554 43.4011461,30.1607008 43.0344762,29.6616595 C42.3500256,28.742519 41.6521699,27.9082711 40.9756046,27.1549488 C41.895828,26.1826512 42.8077716,25.2230479 43.6996076,24.2951802 C44.4230908,24.9671802 45.1706244,25.708205 45.9142153,26.5484033 C46.1421027,26.8054612 46.4661916,26.9371636 46.7867321,26.9371636 C47.0516807,26.9371636 47.3166293,26.8490975 47.5326886,26.6713785 C48.0152736,26.2707174 48.0712598,25.5757091 47.6592489,25.1099901 C46.8509979,24.2007669 46.0431412,23.3887339 45.2652489,22.6687339 C46.0261876,21.8820893 46.7595276,21.1267835 47.4609317,20.4131306 C48.2743082,21.0791802 49.1247459,21.8281388 49.9779436,22.685395 C50.1581244,22.8658909 50.4002054,22.9571306 50.6403151,22.9571306 C50.8697795,22.9571306 51.0988497,22.8754116 51.2774535,22.7091967 C51.6417578,22.3716099 51.6524031,21.8114777 51.3018981,21.4592132 C50.4309584,20.5829157 49.5623843,19.809362 48.7296886,19.1262545 C50.1656155,17.6803041 51.4075622,16.4509488 52.3301511,15.5683041 C53.000408,14.9272463 53.042989,13.9176595 52.475242,13.2186843 C52.601408,13.0207339 52.5785404,12.7589157 52.3944169,12.5942876" id="Fill-26"></path>
                </g>
            </g>
        </g>
    </g>
</svg>