<?xml version="1.0" encoding="UTF-8" standalone="no"?>
<svg width="74px" height="83px" viewBox="0 0 74 83" version="1.1" xmlns="http://www.w3.org/2000/svg" xmlns:xlink="http://www.w3.org/1999/xlink">
    <!-- Generator: Sketch 40 (33762) - http://www.bohemiancoding.com/sketch -->
    <title>iconWork</title>
    <desc>Created with Sketch.</desc>
    <defs></defs>
    <g id="Page-1" stroke="none" stroke-width="1" fill="none" fill-rule="evenodd">
        <g id="Desktop-HD-Copy" transform="translate(-1173.000000, -1796.000000)">
            <g id="iconWork" transform="translate(1173.000000, 1796.000000)">
                <path d="M66.6116689,49.6336029 L71.5047729,49.6336029 C71.5047729,49.6375742 71.5007818,49.6415455 71.5007818,49.6455167 C71.3531106,50.0426459 71.1974572,50.4358038 71.0298305,50.8249904 C69.8684167,53.581067 68.3837228,56.1703493 66.6116689,58.5412105 L66.6116689,49.6336029 Z" id="Fill-1" fill="#072947"></path>
                <path d="M49.561596,71.2175742 C45.6303501,72.6432679 41.3917886,73.4216411 36.973627,73.4216411 C33.4534657,73.4216411 30.0490467,72.929201 26.8202366,72.0078612 L26.8202366,65.745134 C29.4703353,64.6967129 31.2942738,62.1034593 31.2942738,59.1925024 C31.2942738,55.3006364 28.1133571,52.139488 24.2020667,52.139488 L21.8912126,52.139488 C21.6876658,46.9609234 17.3892376,42.8148947 12.1369334,42.8148947 C11.4584443,42.8148947 10.7919285,42.8824067 10.1533505,43.0174306 L10.1533505,40.3407799 C10.2810661,40.301067 10.4087817,40.2573828 10.5364973,40.2097273 C10.7839463,40.110445 11.0274041,39.9952775 11.2548975,39.8602536 C12.7395914,38.9865694 13.7373696,37.3781962 13.7373696,35.539488 L13.7373696,34.2647033 C15.3338146,34.2964737 17.9200555,34.2845598 21.480128,34.2210191 L21.480128,34.6777177 C21.480128,35.4759474 22.1306793,36.1272392 22.9328929,36.1272392 C23.7390977,36.1272392 24.389649,35.4759474 24.389649,34.6777177 L24.389649,17.374799 C26.1656941,16.3303493 27.3031612,14.4042727 27.3031612,12.3074306 C27.3031612,9.06288517 24.6490713,6.42197608 21.3883324,6.42197608 L16.1519927,6.42197608 C18.8779226,4.56341148 21.8592837,3.05432057 25.0441915,1.97015789 C25.9621474,1.66039713 26.8920766,1.38637799 27.8379703,1.14810048 C30.7435002,0.417382775 33.784728,0.0281961722 36.9177514,0.0281961722 C40.0866948,0.0281961722 43.1598515,0.425325359 46.0973103,1.17192823 C47.043204,1.41417703 47.9731332,1.69216746 48.8910891,2.00589952 C52.894175,3.36805263 56.5819631,5.39738278 59.8307287,7.95886603 L59.8866043,12.6370478 L53.5926197,12.6370478 C52.7904061,12.6370478 52.1358636,13.2843684 52.1358636,14.0865694 C52.1358636,14.884799 52.7904061,15.5360909 53.5926197,15.5360909 L56.0192162,15.5360909 L56.0192162,18.0618325 L51.3735611,18.0618325 C51.2937389,18.0618325 51.2139166,18.0697751 51.1301033,18.081689 C48.5837735,18.5105885 46.5882172,20.8615933 46.5882172,23.4349904 L46.5882172,26.1275263 L37.2130937,26.1275263 C36.406889,26.1275263 35.7563376,26.7788182 35.7563376,27.5770478 L35.7563376,31.7111627 C35.7563376,35.48389 38.8374765,38.5497273 42.6290335,38.5497273 C45.3789101,38.5497273 47.8174798,36.9334115 48.9070536,34.4990096 L60.2617688,34.4990096 C61.6067738,36.7944163 63.9136368,38.3670478 66.5318067,38.7959474 L66.5318067,41.4924545 L41.866731,41.4924545 C38.498232,41.4924545 35.7563376,44.2167608 35.7563376,47.5725024 C35.7563376,50.9242727 38.498232,53.6525502 41.866731,53.6525502 L45.5744746,53.6525502 L45.5744746,62.6872392 C45.5744746,66.0390096 47.0511862,69.1127895 49.561596,71.2175742" id="Fill-3" fill="#6DA8D6"></path>
                <path d="M73.8355826,36.7626459 C73.8355826,40.2176699 73.3566491,43.5654689 72.4586488,46.7345598 L65.1589039,46.7345598 C64.3526991,46.7345598 63.7021478,47.3858517 63.7021478,48.1840813 L63.7021478,61.9882919 C60.5810978,65.2526938 56.865372,67.949201 52.7305793,69.8991053 C50.096445,68.3939856 48.4840355,65.6895359 48.4840355,62.6872392 L48.4840355,52.2030287 C48.4840355,51.404799 47.8334842,50.7535072 47.0272795,50.7535072 L41.8667709,50.7535072 C40.1026991,50.7535072 38.6698897,49.3278134 38.6698897,47.5725024 C38.6698897,45.8171914 40.1026991,44.3875263 41.8667709,44.3875263 L67.9886027,44.3875263 C68.7908163,44.3875263 69.4413677,43.7402057 69.4413677,42.9380048 L69.4413677,37.4655646 C69.4413677,36.6673349 68.7908163,36.0160431 67.9886027,36.0160431 C65.6098996,36.0160431 63.4507077,34.6221196 62.4808673,32.4577656 C62.2453917,31.9375263 61.7265471,31.5999665 61.1518269,31.5999665 L48.0250576,31.5999665 C46.9434661,31.5999665 46.5922482,32.2631722 46.4765059,32.6960431 L46.4645326,32.6920718 C46.017528,34.4354689 44.4410385,35.6506842 42.6290734,35.6506842 C40.4459348,35.6506842 38.6698897,33.8834593 38.6698897,31.7111627 L38.6698897,29.0265694 L48.0450132,29.0265694 C48.8472268,29.0265694 49.5017693,28.3792488 49.5017693,27.5770478 L49.5017693,23.4349904 C49.5017693,22.3309713 50.4316985,21.2031244 51.51329,20.9608756 L57.4760122,20.9608756 C58.2822169,20.9608756 58.9327683,20.313555 58.9327683,19.5113541 L58.9327683,15.5360909 L61.3593647,15.5360909 C61.5070359,15.5360909 61.6507159,15.5162344 61.7864138,15.4725502 C61.8782093,15.4447512 61.9660138,15.4050383 62.0498272,15.3613541 C62.1775428,15.2938421 62.2932851,15.2064737 62.397054,15.1032201 C62.6684496,14.829201 62.8201119,14.4558995 62.8161208,14.0667129 L62.7762097,10.5481483 C69.6010122,17.2080048 73.8355826,26.4928852 73.8355826,36.7626459" id="Fill-5" fill="#072947"></path>
                <path d="M7.23987821,40.3407799 L7.23987821,44.1293923 C4.98489961,45.4399187 3.3006501,47.6201579 2.66207209,50.2054689 C0.993787031,46.0276699 0.0798222515,41.4725981 0.0798222515,36.7110191 C0.0798222515,31.075756 1.3649605,25.7303971 3.65585912,20.952933 L3.65585912,35.539488 C3.65585912,37.8031244 5.16849078,39.7172871 7.23987821,40.3407799" id="Fill-7" fill="#98D9D5"></path>
                <path d="M71.504733,49.6336029 C71.504733,49.6375742 71.5007419,49.6415455 71.5007419,49.6455167 C71.3490796,50.0426459 71.1934262,50.4358038 71.0297906,50.8249904 C69.8683768,53.581067 68.3836829,56.1703493 66.6116289,58.5412105 L66.6116289,49.6336029 L71.504733,49.6336029 Z" id="Fill-9" fill="#98D9D5"></path>
                <path d="M41.8468153,20.1348469 C41.8468153,19.3366172 42.5013578,18.6892967 43.3035714,18.6892967 C44.1097762,18.6892967 44.7603275,19.3366172 44.7603275,20.1348469 L44.7603275,21.6479091 C44.7603275,22.4461388 44.1097762,23.0934593 43.3035714,23.0934593 C42.5013578,23.0934593 41.8468153,22.4461388 41.8468153,21.6479091 L41.8468153,20.1348469 Z M41.8667709,41.4924545 L66.5318466,41.4924545 L66.5318466,38.7959474 C63.9136768,38.3670478 61.6068137,36.7944163 60.2618088,34.4990096 L48.9070935,34.4990096 C47.8175197,36.9334115 45.37895,38.5497273 42.6290734,38.5497273 C38.8375165,38.5497273 35.7563776,35.48389 35.7563776,31.7111627 L35.7563776,27.5770478 C35.7563776,26.7788182 36.4069289,26.1275263 37.2131336,26.1275263 L46.5882571,26.1275263 L46.5882571,23.4349904 C46.5882571,20.8615933 48.5838134,18.5105885 51.1301432,18.081689 C51.2139566,18.0697751 51.2937788,18.0618325 51.3736011,18.0618325 L56.0192561,18.0618325 L56.0192561,15.5360909 L53.5926596,15.5360909 C52.790446,15.5360909 52.1359036,14.884799 52.1359036,14.0865694 C52.1359036,13.2843684 52.790446,12.6370478 53.5926596,12.6370478 L59.8866442,12.6370478 L59.8307686,7.95886603 L59.8307686,7.91518182 C56.5859941,5.35766986 52.8982061,3.332311 48.9031024,1.97015789 C48.8991113,1.98207177 48.8951201,1.99398565 48.891129,2.00589952 C47.3705151,7.18049282 42.5253045,10.9015933 36.9736669,10.9015933 C31.410056,10.9015933 26.5488808,7.16460766 25.0442314,1.97015789 C21.8593236,3.05432057 18.8779625,4.56341148 16.1520326,6.42197608 L21.3883723,6.42197608 C24.6491113,6.42197608 27.3032011,9.06288517 27.3032011,12.3074306 C27.3032011,14.4042727 26.165734,16.3303493 24.3896889,17.374799 L24.3896889,34.6777177 C24.3896889,35.4759474 23.7391376,36.1272392 22.9329329,36.1272392 C22.1307192,36.1272392 21.4801679,35.4759474 21.4801679,34.6777177 L21.4801679,34.2210191 C17.9200955,34.2845598 15.3338545,34.2964737 13.7374095,34.2647033 L13.7374095,35.539488 C13.7374095,37.3781962 12.7396313,38.9865694 11.2549375,39.8602536 C11.027444,39.9952775 10.7839862,40.110445 10.5365372,40.2097273 C10.4088216,40.2573828 10.281106,40.301067 10.1533904,40.3407799 L10.1533904,43.0174306 C10.7919684,42.8824067 11.4584842,42.8148947 12.1369733,42.8148947 C17.3892775,42.8148947 21.6877057,46.9609234 21.8912525,52.139488 L24.2021066,52.139488 C28.113397,52.139488 31.2943137,55.3006364 31.2943137,59.1925024 C31.2943137,62.1034593 29.4703752,64.6967129 26.8202765,65.745134 L26.8202765,72.0078612 C30.0490866,72.929201 33.4535056,73.4216411 36.9736669,73.4216411 C41.3918285,73.4216411 45.6303901,72.6432679 49.5616359,71.2175742 C47.0512261,69.1127895 45.5745145,66.0390096 45.5745145,62.6872392 L45.5745145,53.6525502 L41.8667709,53.6525502 C38.4982719,53.6525502 35.7563776,50.9242727 35.7563776,47.5725024 C35.7563776,44.2167608 38.4982719,41.4924545 41.8667709,41.4924545 L41.8667709,41.4924545 Z" id="Fill-11" fill="#98D9D5"></path>
                <g id="Group-15" transform="translate(37.117347, 10.214560)" fill="#6DA8D6">
                    <path d="M36.7502045,26.4964593 C36.7502045,29.9713397 36.2592976,33.3350239 35.349324,36.52 L28.0415969,36.52 C27.2353921,36.52 26.5848408,37.1712919 26.5848408,37.9695215 L26.5848408,51.7737321 C23.4637907,55.038134 19.7480649,57.7346411 15.6132723,59.6845455 C12.979138,58.1794258 11.3667285,55.4749761 11.3667285,52.4726794 L11.3667285,41.9884689 C11.3667285,41.1902392 10.7161772,40.5389474 9.90997243,40.5389474 L4.74946387,40.5389474 C2.98539212,40.5389474 1.5525827,39.1132536 1.5525827,37.3579426 C1.5525827,35.6026316 2.98539212,34.1729665 4.74946387,34.1729665 L30.8712957,34.1729665 C31.6735093,34.1729665 32.3240606,33.5256459 32.3240606,32.723445 L32.3240606,27.2510048 C32.3240606,26.4527751 31.6735093,25.8014833 30.8712957,25.8014833 C28.4925926,25.8014833 25.8915845,26.403134 24.9217442,24.2387799 C24.6862685,23.7185407 24.5880871,23.0060909 24.0133669,23.0060909 L11.3779036,22.5541579 C10.2963121,22.5541579 9.96584801,24.1343349 9.85010574,24.5672057 L8.65277197,25.3479617 C8.20576736,27.0913589 6.29402444,26.7037608 4.48205933,26.7037608 C2.29892075,26.7037608 0.229129773,23.6990813 0.229129773,21.5267847 L0.889658904,17.6647033 L10.7999905,16.8017416 C11.6022042,16.8017416 11.4194112,15.7140048 11.4194112,14.9118038 L12.3844622,13.2204306 C12.3844622,12.1164115 13.3143915,10.9885646 14.395983,10.7463158 L20.3587052,10.7463158 C21.1649099,10.7463158 21.8154612,10.0989952 21.8154612,9.29679426 L21.8154612,5.3215311 L24.2420577,5.3215311 C24.3897289,5.3215311 24.5334089,5.30167464 24.6691067,5.25799043 C24.7609023,5.23019139 24.8487068,5.19047847 24.9325202,5.14679426 C25.0602358,5.0792823 25.175978,4.99191388 25.279747,4.88866029 C25.5511426,4.61464115 25.7028049,4.24133971 25.6988138,3.85215311 L25.6589026,0.333588517 L25.6589026,0.285933014 C32.4956785,6.95373206 36.7502045,16.2386124 36.7502045,26.4964593" id="Fill-13"></path>
                </g>
                <path d="M27.8333805,1.14063445 C28.9776325,5.13019426 32.7033361,8.00461531 36.9722301,8.00461531 C41.2415232,8.00461531 44.9672268,5.13019426 46.1114788,1.14063445 C43.1875897,0.396414354 40.1256081,7.94258374e-05 36.9722301,7.94258374e-05 C33.818852,7.94258374e-05 30.7568705,0.396414354 27.8333805,1.14063445" id="Fill-16" fill="#98D9D5"></path>
                <path d="M30.4322334,59.7464976 C30.4322334,61.7003732 28.0615125,63.0684833 26.1417874,63.4695837 C25.846445,63.5291531 24.5134134,63.4656124 24.3178489,63.6721196 C24.1741689,63.8150861 24.0624177,63.989823 23.9945688,64.1844163 C23.9626399,64.2598708 23.9426843,64.3392967 23.930711,64.4226938 C23.9147465,64.5060909 23.9067643,64.589488 23.9067643,64.6768565 L23.9067643,71.0428373 C16.0841837,68.0842249 9.38111011,62.5343445 5.13855744,55.4773589 L4.63966837,51.4564258 C4.63966837,47.6995837 8.49707867,44.5066651 12.2726712,44.5066651 C14.5156764,44.5066651 17.8582332,46.6650622 19.1074514,48.3290335 C19.2351671,48.5037703 19.3409315,48.9366411 19.4566738,49.1232919 C19.6282916,49.4052536 19.7739672,49.5124785 19.905674,49.8182679 C20.2529008,50.6323828 20.4544519,51.6073349 20.4544519,52.5485311 L21.3524523,53.5413541 C21.3524523,54.3395837 22.8451284,53.9881244 23.647342,53.9881244 L26.6406764,53.4420718 C28.9395573,53.4420718 30.4322334,57.4550622 30.4322334,59.7464976" id="Fill-18" fill="#6DA8D6"></path>
                <path d="M25.4932316,11.0981722 C25.4932316,12.3411866 24.9205069,14.8887703 23.7471198,15.3176699 C23.1763907,15.5281483 22.4001193,16.0503732 22.4001193,16.6579809 L22.2504526,32.4935072 C18.15158,32.5610191 14.1325296,31.8819282 13.4700049,31.7985311 C13.0509381,31.7111627 11.7298799,31.3378612 11.3906353,31.5999665 C11.0314352,31.8739856 13.3203382,32.2929569 13.3203382,32.7417129 L12.3225601,35.8194641 C12.3225601,36.9870239 9.5048346,38.5497273 8.3314475,38.5497273 C7.1580604,38.5497273 4.98889072,38.6251818 4.98889072,37.457622 L6.5693713,15.9411627 C8.2536208,13.5067608 10.2252304,11.2828373 12.4363068,9.32101914 L21.8513413,7.77221531 C23.5076531,7.77221531 25.4932316,9.45008612 25.4932316,11.0981722" id="Fill-20" fill="#6DA8D6"></path>
                <path d="M21.5041145,3.38790909 C21.3963545,3.4315933 21.2925856,3.4832201 21.1888167,3.5308756 C21.2287278,3.51499043 21.2686389,3.49513397 21.30855,3.4792488 C21.3724078,3.44747847 21.4402567,3.41570813 21.5041145,3.38790909 L21.5041145,3.38790909 Z M20.3227452,3.95977512 C20.3175568,3.96255502 20.3119692,3.96533493 20.3067808,3.96811483 C20.5326777,3.85493301 20.7569783,3.73897129 20.9852699,3.63015789 C20.7657587,3.73738278 20.5422564,3.84857895 20.3227452,3.95977512 L20.3227452,3.95977512 Z M70.0041145,53.0449426 C69.8963545,53.2633636 69.7846034,53.4778134 69.6728522,53.6882919 C69.59303,53.839201 69.5132077,53.99011 69.4293943,54.1370478 C69.4050486,54.1831148 69.3791063,54.2291818 69.3539623,54.2752488 C69.4313899,54.1330766 69.5136068,53.9940813 69.5890388,53.8511148 C69.7327189,53.5850383 69.8684167,53.3149904 70.0041145,53.0449426 L70.0041145,53.0449426 Z M69.3539623,54.2752488 C69.2689516,54.4309234 69.1827436,54.5865981 69.0957373,54.7410813 C69.1244733,54.6902488 69.1528102,54.6406077 69.1819454,54.5897751 C69.2402156,54.484933 69.2968894,54.3800909 69.3539623,54.2752488 L69.3539623,54.2752488 Z M24.2180711,63.7872871 C24.1582044,63.8667129 24.1023288,63.95011 24.0544355,64.0414498 C24.0344799,64.0891053 24.0145244,64.1367608 23.9945688,64.1844163 C23.9706221,64.2598708 23.9466754,64.3392967 23.930711,64.4226938 C23.9227288,64.466378 23.9187377,64.5060909 23.9147465,64.5497751 C23.9147465,64.589488 23.9107554,64.6331722 23.9107554,64.6768565 L23.9107554,71.0428373 L23.9067643,71.0428373 C23.6633065,70.9514976 23.4198486,70.8561866 23.1763907,70.7569043 C22.8012261,70.6059952 22.4260616,70.4471435 22.0548881,70.2843206 C21.875288,70.2048947 21.695688,70.1254689 21.5160879,70.0420718 C21.3165323,69.9467608 21.1169766,69.8554211 20.917421,69.76011 C20.7218565,69.664799 20.5223009,69.5655167 20.3267363,69.4702057 C20.1311718,69.3709234 19.9395984,69.2716411 19.7440339,69.1683876 C13.7653473,66.0072392 8.75650099,61.2655167 5.29221527,55.5031722 L5.29221527,52.5247033 C5.29221527,48.7678612 8.36138084,45.7099665 12.1369733,45.7099665 C14.3799786,45.7099665 16.3755349,46.7861866 17.6247531,48.4501579 C17.7564598,48.6248947 17.8801843,48.8075742 17.9919355,48.9942249 C18.1675444,49.2761866 18.3192067,49.5700622 18.4469223,49.8758517 C18.7941491,50.6899665 18.9857225,51.5835072 18.9857225,52.5247033 L18.9857225,53.5890096 C18.9857225,54.3872392 19.640265,55.0385311 20.4424786,55.0385311 L24.2060978,55.0385311 C26.5049786,55.0385311 28.3808015,56.901067 28.3808015,59.1925024 C28.3808015,61.146378 26.9879032,62.8580048 25.0681781,63.2591053 C24.7728357,63.3186746 24.5134134,63.4656124 24.3178489,63.6721196 C24.2819289,63.7078612 24.25,63.7475742 24.2180711,63.7872871 L24.2180711,63.7872871 Z M0.0798222515,36.7110191 C0.0798222515,31.075756 1.3649605,25.7303971 3.65585912,20.952933 L3.65585912,35.539488 C3.65585912,37.8031244 5.16849078,39.7172871 7.23987821,40.3407799 L7.23987821,44.1293923 C4.98489961,45.4399187 3.3006501,47.6201579 2.66207209,50.2054689 C0.993787031,46.0276699 0.0798222515,41.4725981 0.0798222515,36.7110191 L0.0798222515,36.7110191 Z M12.4363068,9.32101914 L21.3883723,9.32101914 C23.044684,9.32101914 24.3896889,10.6593445 24.3896889,12.3074306 C24.3896889,13.550445 23.6034398,14.6782919 22.4300527,15.1071914 C21.8593236,15.3176699 21.4801679,15.8617368 21.4801679,16.4693445 L21.4801679,31.3219761 C17.3812953,31.389488 13.2465026,31.4093445 12.5839779,31.3259474 C12.1649111,31.2385789 11.7298799,31.3378612 11.3906353,31.5999665 C11.0314352,31.8739856 10.8238973,32.2949426 10.8238973,32.7436986 L10.8238973,35.539488 C10.8238973,36.7070478 9.8700214,37.6601579 8.6966343,37.6601579 C7.5232472,37.6601579 6.5693713,36.7070478 6.5693713,35.539488 L6.5693713,15.9411627 C8.2536208,13.5067608 10.2252304,11.2828373 12.4363068,9.32101914 L12.4363068,9.32101914 Z M71.5047729,49.6336029 C71.863973,48.6884354 72.1792709,47.7194402 72.4586488,46.7345598 L65.1589039,46.7345598 C64.3526991,46.7345598 63.7021478,47.3858517 63.7021478,48.1840813 L63.7021478,61.9882919 C60.5810978,65.2526938 56.865372,67.949201 52.7305793,69.8991053 C52.6028637,69.8236507 52.4751481,69.7481962 52.3514236,69.664799 L52.3474325,69.6687703 L52.3474325,69.6608278 C52.3394503,69.6608278 52.3314681,69.6568565 52.327477,69.6489139 C52.223708,69.5814019 52.1199391,69.51389 52.0201613,69.4424067 C51.9602946,69.3987225 51.9004279,69.3550383 51.8405612,69.3113541 C51.7767034,69.2676699 51.7128456,69.2160431 51.6529789,69.1644163 C51.5691656,69.1048469 51.4893433,69.0373349 51.4095211,68.969823 C51.2857966,68.8665694 51.1620721,68.7553732 51.0463298,68.644177 C50.9704987,68.5766651 50.8986587,68.5051818 50.8308097,68.4297273 C50.7629608,68.3622153 50.6951119,68.2907321 50.6312541,68.2192488 C50.5713874,68.1557081 50.5115207,68.0881962 50.4596363,68.0206842 C50.4117429,67.9730287 50.3718318,67.9253732 50.3359118,67.8737464 C50.2640718,67.7943206 50.200214,67.7109234 50.1403473,67.6275263 C50.0804806,67.5520718 50.024605,67.4726459 49.9687294,67.3932201 C49.9288183,67.337622 49.8889072,67.2820239 49.8529872,67.2224545 C49.7931205,67.1390574 49.7372449,67.051689 49.6893515,66.9643206 C49.6374671,66.888866 49.5935648,66.8094402 49.5456715,66.7260431 C49.1944536,66.1104928 48.927049,65.4472871 48.7434579,64.752311 C48.7235023,64.6689139 48.7035467,64.589488 48.6875823,64.5100622 C48.675609,64.4544641 48.6636356,64.3948947 48.6516623,64.3392967 C48.6317067,64.2519282 48.6157423,64.1645598 48.5997778,64.0771914 C48.5838134,63.9659952 48.5638578,63.854799 48.5518845,63.7396316 C48.5319289,63.5768086 48.5159645,63.4139856 48.5039911,63.2471914 C48.5,63.1757081 48.4960089,63.1042249 48.4920178,63.0327416 C48.4880267,62.9175742 48.4840355,62.8024067 48.4840355,62.6872392 L48.4840355,52.2030287 C48.4840355,51.404799 47.8334842,50.7535072 47.0272795,50.7535072 L41.8667709,50.7535072 C40.1026991,50.7535072 38.6698897,49.3278134 38.6698897,47.5725024 C38.6698897,45.8171914 40.1026991,44.3875263 41.8667709,44.3875263 L67.9886027,44.3875263 C68.7908163,44.3875263 69.4413677,43.7402057 69.4413677,42.9380048 L69.4413677,37.4655646 C69.4413677,36.6673349 68.7908163,36.0160431 67.9886027,36.0160431 C65.6098996,36.0160431 63.4507077,34.6221196 62.4808673,32.4577656 C62.2453917,31.9375263 61.7265471,31.5999665 61.1518269,31.5999665 L48.0250576,31.5999665 C46.9434661,31.5999665 46.5922482,32.2631722 46.4765059,32.6960431 L46.4645326,32.6920718 C46.017528,34.4354689 44.4410385,35.6506842 42.6290734,35.6506842 C40.4459348,35.6506842 38.6698897,33.8834593 38.6698897,31.7111627 L40.3980415,30.4125502 L40.8330727,30.0869043 L47.5940174,30.0352775 C48.3962311,30.0352775 51.4853522,29.3244163 51.4853522,28.5222153 L57.3482966,25.9170478 C57.3482966,24.8130287 52.1997614,23.701067 53.2813529,23.4588182 L57.3482966,23.061689 C58.1545013,23.061689 61.1119157,22.6963301 61.1119157,21.8941292 L62.6604674,18.7409234 L63.1354098,17.1166651 C63.283081,17.1166651 61.9739961,16.4772871 62.1096939,16.4336029 C62.2014895,16.4058038 62.2134628,15.8935072 62.2972762,15.849823 C62.4249918,15.782311 63.1553654,16.0166172 63.2591343,15.9133636 C63.53053,15.6393445 64.3606814,14.5154689 64.3566903,14.1262823 L62.7762097,10.5481483 C61.8422893,9.6307799 60.8604756,8.76503828 59.8307686,7.95886603 L59.8866442,12.6370478 L53.5926596,12.6370478 C52.790446,12.6370478 52.1359036,13.2843684 52.1359036,14.0865694 C52.1359036,14.884799 52.790446,15.5360909 53.5926596,15.5360909 L56.0192561,15.5360909 L56.0192561,18.0618325 L51.3736011,18.0618325 C51.2937788,18.0618325 51.2139566,18.0697751 51.1301432,18.081689 C48.5838134,18.5105885 46.5882571,20.8615933 46.5882571,23.4349904 L46.5882571,26.1275263 L37.2131336,26.1275263 C36.4069289,26.1275263 35.7563776,26.7788182 35.7563776,27.5770478 L35.7563776,31.7111627 C35.7563776,31.8144163 35.7603687,31.9136986 35.7643598,32.0129809 C35.7683509,32.1122632 35.772342,32.2115455 35.7843153,32.3108278 C35.7883065,32.3862823 35.7962887,32.4617368 35.808262,32.5332201 C35.8401909,32.8350383 35.9000576,33.1289139 35.9718976,33.4188182 C35.9998354,33.5300144 36.0317643,33.6372392 36.0676843,33.7444641 C36.1235599,33.9271435 36.1874177,34.109823 36.2632488,34.2885311 C36.2871955,34.3481005 36.3111422,34.4116411 36.3430711,34.4712105 C36.6424045,35.1542727 37.0574803,35.7777656 37.5563693,36.3178612 C37.6242182,36.3972871 37.6960583,36.4727416 37.7718894,36.5442249 C37.8517117,36.6236507 37.9315339,36.6991053 38.0113562,36.7705885 C38.0911784,36.8460431 38.1749918,36.9175263 38.2588051,36.9850383 C38.4064763,37.1081483 38.5621297,37.2233158 38.7217742,37.3305407 C38.7816409,37.3742249 38.8454987,37.4179091 38.9093565,37.457622 C39.0250987,37.5330766 39.1448321,37.6045598 39.2685566,37.6720718 C39.3284233,37.7078134 39.38829,37.7395837 39.4521478,37.7713541 C39.5359612,37.8150383 39.6197745,37.8587225 39.707579,37.8984354 C39.7953835,37.9381483 39.883188,37.9778612 39.9709924,38.0136029 C40.238397,38.1287703 40.5137837,38.2240813 40.7971527,38.2995359 C40.8889483,38.3273349 40.9807439,38.3511627 41.0725395,38.3710191 C41.1643351,38.3948469 41.2601218,38.4147033 41.3559085,38.4305885 C41.4237574,38.4464737 41.4876152,38.4544163 41.5554641,38.4663301 L41.6392775,38.478244 C41.7310731,38.4901579 41.8188776,38.5020718 41.9106731,38.5100144 C42.0144421,38.5258995 42.1222021,38.5338421 42.2299621,38.5378134 C42.3616689,38.545756 42.4973667,38.5497273 42.6290734,38.5497273 C45.37895,38.5497273 47.8175197,36.9334115 48.9070935,34.4990096 L60.2618088,34.4990096 C61.6068137,36.7944163 63.9136768,38.3670478 66.5318466,38.7959474 L66.5318466,41.4924545 L41.8667709,41.4924545 C38.4982719,41.4924545 35.7563776,44.2167608 35.7563776,47.5725024 C35.7563776,50.9242727 38.4982719,53.6525502 41.8667709,53.6525502 L45.5745145,53.6525502 L45.5745145,62.6872392 C45.5745145,66.0390096 47.0512261,69.1127895 49.5616359,71.2175742 C45.6303901,72.6432679 41.3918285,73.4216411 36.9736669,73.4216411 C36.6743334,73.4216411 36.375,73.4176699 36.0796577,73.4097273 C35.7883065,73.4017847 35.4969552,73.3938421 35.2095951,73.3779569 L35.1896396,73.3779569 L35.1816573,73.3779569 C34.8224572,73.3620718 34.4672482,73.338244 34.1120392,73.310445 C33.7608213,73.2866172 33.4135945,73.2548469 33.0663677,73.2191053 C32.7909809,73.1873349 32.5195853,73.1555646 32.2441985,73.119823 C32.1005184,73.1039378 31.9608295,73.0840813 31.8171494,73.0642249 C31.4858871,73.0205407 31.1506336,72.9689139 30.8233624,72.9093445 C30.595869,72.8736029 30.3683756,72.83389 30.1408822,72.7902057 C29.8495309,72.7385789 29.5621708,72.6790096 29.2748107,72.6154689 C29.071264,72.575756 28.8717084,72.5320718 28.6721527,72.4844163 C28.0495392,72.3414498 27.4309167,72.1825981 26.8202765,72.0078612 L26.8202765,65.745134 C29.4703752,64.6967129 31.2943137,62.1034593 31.2943137,59.1925024 C31.2943137,55.3006364 28.113397,52.139488 24.2021066,52.139488 L21.8912525,52.139488 C21.8832702,51.9766651 21.875288,51.8178134 21.8593236,51.6589617 C21.8473502,51.5199665 21.8353769,51.3849426 21.8154213,51.25389 L21.8154213,51.2499187 C21.8074391,51.1824067 21.7954658,51.118866 21.7874835,51.0553254 C21.7515635,50.8289617 21.7116524,50.6065694 21.6597679,50.3881483 C21.6398124,50.2968086 21.6198568,50.2054689 21.591919,50.1141292 C21.5719635,50.0188182 21.5440257,49.9235072 21.5160879,49.8281962 C21.4761768,49.689201 21.4322745,49.5502057 21.3883723,49.4151818 C21.3484612,49.3039856 21.30855,49.1927895 21.2646478,49.0815933 C21.2327189,48.9942249 21.20079,48.9108278 21.16487,48.8274306 C21.12895,48.7440335 21.09303,48.6606364 21.0571099,48.5772392 C20.8415899,48.1006842 20.5901498,47.6479569 20.3067808,47.2150861 C20.2469141,47.1197751 20.1790652,47.0244641 20.1152074,46.9331244 C20.0473585,46.8378134 19.9795095,46.7464737 19.9076695,46.655134 C19.8438117,46.5717368 19.7799539,46.4883397 19.712105,46.4089139 C19.6362739,46.3096316 19.5524605,46.2143206 19.4686471,46.1229809 C19.2132159,45.8291053 18.9378292,45.5550861 18.6464779,45.2969522 C18.5866113,45.2413541 18.5227535,45.185756 18.4588957,45.1301579 C18.3870556,45.0705885 18.3112245,45.0070478 18.2353934,44.9474785 C18.22342,44.9355646 18.2074556,44.927622 18.1954822,44.9196794 C18.1036866,44.8442249 18.0078999,44.7727416 17.9121132,44.7052297 C17.4371708,44.3517847 16.9302995,44.0499665 16.3994816,43.7918325 C16.3236504,43.7560909 16.2518104,43.7203493 16.1759793,43.6885789 C16.0722103,43.6369522 15.9644503,43.5932679 15.8606814,43.5495837 C15.8526991,43.5456124 15.8407258,43.5416411 15.8327436,43.5416411 C15.7289747,43.4939856 15.6252057,43.4542727 15.5174457,43.4185311 C15.2021478,43.2993923 14.8788677,43.20011 14.5515964,43.1167129 C14.4358542,43.0849426 14.3161208,43.0571435 14.2003785,43.0333158 C14.180423,43.0293445 14.1644585,43.0253732 14.1524852,43.0214019 C14.0726629,43.0055167 13.9928407,42.9896316 13.9130184,42.9777177 C13.8172317,42.9578612 13.7174539,42.9419761 13.6176761,42.9260909 C13.5977205,42.9221196 13.577765,42.9221196 13.5578094,42.9181483 C13.4420671,42.9022632 13.3263249,42.886378 13.2105826,42.8744641 C13.1427337,42.8665215 13.0708937,42.8585789 13.0030448,42.8546077 C12.8673469,42.8426938 12.7356402,42.8307799 12.5999424,42.8268086 C12.444289,42.818866 12.2926267,42.8148947 12.1369733,42.8148947 C11.4584842,42.8148947 10.7919684,42.8824067 10.1533904,43.0174306 L10.1533904,40.3407799 C10.281106,40.301067 10.4088216,40.2573828 10.5365372,40.2097273 C10.7839862,40.110445 11.027444,39.9952775 11.2549375,39.8602536 C12.7396313,38.9865694 13.7374095,37.3781962 13.7374095,35.539488 L13.7374095,34.2647033 C15.3338545,34.2964737 17.9200955,34.2845598 21.4801679,34.2210191 L21.4801679,34.6777177 C21.4801679,34.7531722 21.484159,34.8286268 21.5001234,34.90011 C21.5001234,34.9358517 21.5081057,34.967622 21.5160879,34.9993923 L21.5160879,35.0033636 C21.5679724,35.2297273 21.6717413,35.4362344 21.8194124,35.607 C21.8473502,35.6387703 21.875288,35.6705407 21.9072169,35.702311 C22.0389236,35.8373349 22.1985681,35.9445598 22.3781682,36.0160431 C22.4140882,36.0319282 22.4460171,36.0438421 22.4819371,36.055756 C22.5378127,36.0756124 22.5936883,36.0875263 22.653555,36.0994402 C22.6974572,36.1073828 22.7413594,36.1153254 22.7852617,36.1192967 C22.833155,36.1232679 22.8850395,36.1272392 22.9329329,36.1272392 C23.7391376,36.1272392 24.3896889,35.4759474 24.3896889,34.6777177 L24.3896889,17.374799 C26.165734,16.3303493 27.3032011,14.4042727 27.3032011,12.3074306 C27.3032011,9.06288517 24.6491113,6.42197608 21.3883723,6.42197608 L16.1520326,6.42197608 C17.0500329,5.81039713 17.9799621,5.23455981 18.9298469,4.7024067 C19.1533492,4.57532536 19.3768515,4.45221531 19.604345,4.33307656 C19.8386233,4.20877512 20.0725025,4.08487081 20.3067808,3.96811483 C8.26319947,10.0128182 0,22.4211196 0,36.7626459 C0,43.5932679 1.8718318,49.9870478 5.140553,55.4634593 L5.140553,55.4674306 C5.14853522,55.4912584 5.16449967,55.5111148 5.17647301,55.5309713 L5.21239302,55.5905407 C5.22037525,55.6024545 5.22835747,55.6183397 5.2363397,55.6302536 C9.05184332,61.9604928 14.7311965,67.0556603 21.5160879,70.1572392 C25.7107472,72.0753732 30.3284645,73.2349904 35.1896396,73.4573828 C35.7603687,73.4851818 36.33908,73.4970957 36.9177913,73.4970957 C42.4295178,73.4970957 47.6538841,72.2977656 52.3474325,70.1453254 C52.3474325,70.1453254 52.3514236,70.1453254 52.3514236,70.1413541 C59.4324556,66.8924402 65.2985928,61.4748038 69.0957373,54.7410813 C69.0302831,54.8566459 68.9652279,54.9730048 68.8985764,55.0861866 C68.8666475,55.1417847 68.8347186,55.1934115 68.8027897,55.2450383 C68.6870474,55.4436029 68.5713051,55.6381962 68.4515718,55.8327895 C68.2999095,56.0790096 68.1442561,56.3212584 67.9846116,56.5635072 C67.9047893,56.6905885 67.8249671,56.8176699 67.7371626,56.9407799 C67.6214203,57.1155167 67.5056781,57.2942249 67.3819536,57.4649904 C67.3220869,57.5523589 67.2622202,57.6397273 67.2023535,57.7270957 C67.0107801,58.0011148 66.8112245,58.2711627 66.6116689,58.5412105 L66.6116689,49.6336029 L71.5047729,49.6336029 Z M70.1877057,52.6756124 C70.2196346,52.6081005 70.2555546,52.5366172 70.2874835,52.465134 C70.2076613,52.6319282 70.127839,52.7947512 70.0480168,52.9575742 C70.091919,52.8662344 70.1398124,52.7709234 70.1877057,52.6756124 L70.1877057,52.6756124 Z" id="Fill-22" fill="#6DA8D6"></path>
                <path d="M42.6051267,42.5210191 L37.8157916,44.9037943 L38.0153473,49.5700622 L43.6029049,52.6478134 L47.9931287,52.9456603 L46.9953506,59.9947033 C46.9953506,59.9947033 47.4942396,66.9444641 47.7935731,67.0437464 C48.0929065,67.1430287 51.9842413,69.922933 51.9842413,69.922933 L64.6560237,59.7961388 L65.3544684,48.5772392 L70.0440257,47.3858517 L71.9398041,46.9887225 L72.3389154,43.811689 L73.1371379,31.5006842 L67.4498025,24.6502057 C67.4498025,24.6502057 59.667133,28.1250861 59.7669108,28.422933 C59.8666886,28.7207799 61.263578,34.9755646 61.6626893,35.1741292 C62.0618005,35.3726938 67.3500247,38.8475742 67.3500247,38.8475742 L69.4453588,39.5425502 L67.8489138,41.9253254 L64.6560237,44.5066651 C64.6560237,44.5066651 62.6604674,43.2159952 62.361134,43.1167129 C62.0618005,43.0174306 42.6051267,42.5210191 42.6051267,42.5210191" id="Fill-24" fill="#6DA8D6"></path>
                <path d="M52.3513837,30.4125502 L52.3513837,70.1413541 C52.3513837,70.1453254 52.3473926,70.1453254 52.3473926,70.1453254 L52.3473926,71.0785789 L48.7114891,73.5804928 L35.1895997,73.5804928 L35.1895997,73.4573828 C30.3284245,73.2349904 25.7107073,72.0753732 21.516048,70.1572392 L21.516048,30.4125502 L52.3513837,30.4125502 Z" id="Fill-26" fill="#E1F3FF"></path>
                <polygon id="Fill-28" fill="#6DA8D6" points="52.3473926 30.368866 52.3473926 71.0785789 48.7114891 73.5804928 35.1895997 82.889201 35.1895997 42.5488182 41.0724996 38.3710191 43.0760381 36.9532679 43.0800292 36.9532679 47.1868841 34.0303971 48.9469647 32.7834115 50.6112586 31.5999665 52.2875259 30.4125502"></polygon>
                <path d="M43.8804868,56.5685507 C44.171838,57.1245316 43.8042565,57.8886081 43.0591158,58.275412 C42.3139751,58.6618187 41.4738459,58.5248091 41.1824947,57.9688282 C40.8911434,57.4124502 41.2587249,56.6483737 42.0038656,56.261967 C42.7490063,55.8751632 43.5891355,56.0125699 43.8804868,56.5685507" id="Fill-30" fill="#98D9D5"></path>
            </g>
        </g>
    </g>
</svg>